<svg t="1623406564252" class="icon" viewBox="0 0 1024 1024" version="1.1" xmlns="http://www.w3.org/2000/svg" p-id="10286" data-spm-anchor-id="a313x.7781069.0.i21" width="128" height="128"><path d="M512 0C229.665391 0 0 229.665391 0 512 0 613.554087 29.785043 711.813565 86.105043 796.093217 96.345043 811.408696 117.092174 815.460174 132.429913 805.286957 147.767652 795.046957 151.863652 774.299826 141.623652 758.962087 92.672 685.701565 66.782609 600.30887 66.782609 512 66.782609 266.50713 266.50713 66.782609 512 66.782609 757.49287 66.782609 957.217391 266.50713 957.217391 512 957.217391 757.49287 757.49287 957.217391 512 957.217391 423.424 957.217391 337.808696 931.194435 264.392348 881.975652 249.143652 871.735652 228.374261 875.809391 218.067478 891.12487 207.805217 906.440348 211.901217 927.165217 227.216696 937.449739 311.652174 994.05913 410.134261 1024 512 1024 794.334609 1024 1024 794.334609 1024 512 1024 229.665391 794.334609 0 512 0ZM323.283478 535.086748C309.103304 535.086748 301.979826 528.898226 301.979826 516.521183L301.979826 465.989009C301.979826 452.18727 309.103304 445.308661 323.283478 445.308661L462.057739 445.308661C458.629565 477.364313 450.192696 507.282922 436.813913 535.086748L323.283478 535.086748ZM524.454957 445.308661 700.360348 445.308661C708.10713 445.308661 714.073043 446.8224 718.32487 449.872139 721.975652 452.498922 723.801043 457.886052 723.801043 465.989009L723.801043 520.171965C723.801043 530.100313 716.032 535.086748 700.360348 535.086748L504.375652 535.086748C513.324522 507.082574 520.025043 477.141704 524.454957 445.308661ZM334.547478 657.744139C309.815652 674.773704 273.975652 690.311791 227.116522 704.313878L227.116522 756.960835C246.416696 754.935096 261.798957 752.597704 273.374609 749.948661 309.504 741.022052 344.275478 724.504487 377.755826 700.351443 413.506783 674.172661 446.363826 637.842922 476.371478 591.384487L522.028522 591.384487 522.028522 694.87527C522.028522 715.978574 528.328348 731.4944 540.883478 741.445009 552.281043 750.571965 566.77287 755.135443 584.403478 755.135443L789.849043 755.135443 789.849043 697.301704 603.881739 697.301704C595.801043 697.301704 589.901913 695.787965 586.25113 692.738226 582.800696 689.888835 581.197913 683.722574 581.376 674.172661L581.665391 591.384487 720.461913 591.384487C738.715826 591.384487 753.764174 585.797009 765.495652 574.644313 775.446261 565.116661 780.410435 550.602574 780.410435 531.124313L780.410435 449.271096C780.410435 429.369878 774.934261 414.366052 763.981913 404.215096 757.281391 397.93753 746.841043 393.151443 732.638609 389.923617L748.755478 352.792487C753.452522 342.018226 755.767652 333.002574 755.767652 325.701009 755.767652 311.075617 749.890783 298.09753 738.114783 286.744487 726.160696 274.768139 709.709913 268.779965 688.806957 268.779965L359.501913 268.779965 368.317217 238.661009 311.106783 238.661009C300.755478 267.466574 290.114783 288.569878 279.162435 301.948661 265.984 318.399443 250.534957 328.327791 232.882087 331.778226L232.882087 389.923617C256.233739 383.423443 275.622957 374.808487 291.027478 364.034226 304.62887 354.506574 317.94087 341.528487 330.896696 325.077704L665.366261 325.077704C677.36487 325.077704 684.844522 325.901357 687.894261 327.5264 692.591304 329.952835 694.884174 333.40327 694.884174 337.877704 694.884174 342.329878 692.902957 349.119443 688.806957 358.268661L675.405913 387.786574 326.021565 387.786574C295.41287 387.786574 274.42087 393.0624 263.023304 403.614052 251.069217 414.967096 245.058783 431.19527 245.058783 452.298574L245.058783 528.096835C245.058783 559.551443 258.05913 579.630748 284.015304 588.357009 290.114783 590.360487 302.425043 591.384487 320.857043 591.384487L403.333565 591.384487C379.581217 620.813357 356.674783 642.940661 334.547478 657.744139L334.547478 657.744139Z" p-id="10287" data-spm-anchor-id="a313x.7781069.0.i22" class="selected" fill="#CDA174"></path></svg>