<svg t="1632078668226" class="icon" viewBox="0 0 1024 1024" version="1.1" xmlns="http://www.w3.org/2000/svg" p-id="6211" width="200" height="200"><path d="M511.994581 76.800452C271.648182 76.800452 76.800452 271.646376 76.800452 512S271.648182 947.199548 511.996388 947.199548c240.366267 0 435.204967-194.845925 435.204967-435.199548C947.199548 271.646376 752.360849 76.800452 511.994581 76.800452z m0.005419 190.518222c55.022863 0 99.629259 44.60459 99.629259 99.62926s-44.60459 99.629259-99.629259 99.629259-99.629259-44.60459-99.629259-99.629259 44.606396-99.629259 99.629259-99.62926z m-0.001806 578.803027c-154.776752 0-280.249399-78.619315-280.2494-175.606075 0-96.981342 125.472647-175.602462 280.2494-175.602462 154.778558 0 280.251206 78.621121 280.251205 175.602462 0 96.98676-125.472647 175.606075-280.251205 175.606075z" p-id="6212" data-spm-anchor-id="a313x.7781069.0.i5" class="selected" fill="#C8C8C8"></path></svg>