<svg t="1622013590415" class="icon" viewBox="0 0 1024 1024" version="1.1" xmlns="http://www.w3.org/2000/svg" p-id="9439" width="128" height="128"><path d="M597.333333 175.542857l-87.771428 87.771429-82.895238-87.771429-41.447619 41.447619 87.771428 92.647619h-75.580952v58.514286h82.895238v41.447619h-85.333333v58.514286h85.333333v82.895238h58.514286v-82.895238h80.457142v-58.514286h-80.457142v-41.447619h80.457142v-58.514286h-73.142857l92.647619-92.647619z" p-id="9440" fill="#3C3C3C"></path><path d="M943.542857 702.171429l-146.285714-58.514286c53.638095-65.828571 85.333333-148.72381 85.333333-236.495238 0-204.8-165.790476-370.590476-370.590476-370.590476-180.419048 0-331.580952 129.219048-363.27619 302.323809-2.438095 17.066667 7.314286 31.695238 21.942857 34.133333 17.066667 2.438095 31.695238-7.314286 34.133333-24.380952C231.619048 195.047619 377.904762 80.457143 546.133333 97.52381c134.095238 14.628571 246.247619 117.028571 270.628572 251.123809 19.504762 99.961905-9.752381 199.92381-78.019048 273.066667-56.07619-21.942857-92.647619-31.695238-107.27619-34.133334-36.571429-4.87619-73.142857 9.752381-92.647619 41.447619-17.066667 26.819048-21.942857 58.514286-12.190477 85.333334 2.438095 2.438095 2.438095 7.314286 7.314286 14.628571-43.885714-4.87619-85.333333-14.628571-126.780952-31.695238-26.819048-9.752381-63.390476-51.2-95.085715-82.895238-53.638095-56.07619-104.838095-109.714286-168.228571-109.714286-26.819048 0-51.2 9.752381-70.704762 26.819048-21.942857 19.504762-53.638095 63.390476-24.380952 148.723809 41.447619 117.028571 195.047619 295.009524 343.771428 307.2H919.161905c34.133333 0 60.952381-29.257143 60.952381-60.952381v-163.35238c2.438095-26.819048-14.628571-51.2-36.571429-60.952381z m-24.380952 224.304761H394.971429c-119.466667-7.314286-256-165.790476-290.133334-265.75238-9.752381-26.819048-17.066667-65.828571 7.314286-85.333334 9.752381-7.314286 19.504762-12.190476 31.695238-12.190476 36.571429 0 80.457143 43.885714 124.342857 92.647619 36.571429 39.009524 78.019048 82.895238 117.028572 97.52381 80.457143 31.695238 158.47619 39.009524 207.238095 39.009523 12.190476 0 21.942857-7.314286 26.819047-17.066666 4.87619-9.752381 4.87619-21.942857-2.438095-31.695238-31.695238-39.009524-36.571429-51.2-36.571428-51.2-2.438095-9.752381-2.438095-19.504762 4.87619-29.257143 9.752381-12.190476 21.942857-19.504762 36.571429-17.066667 26.819048 4.87619 170.666667 58.514286 299.885714 112.152381 2.438095 0 2.438095 2.438095 2.438095 2.438095v163.352381c-2.438095 2.438095-2.438095 2.438095-4.87619 2.438095z" p-id="9441" fill="#3C3C3C" data-spm-anchor-id="a313x.7781069.0.i3" class="selected"></path></svg>