<svg t="1632022711924" class="icon" viewBox="0 0 1024 1024" version="1.1" xmlns="http://www.w3.org/2000/svg" p-id="1882" width="200" height="200"><path d="M251.345455 179.2h13.963636c4.654545 2.327273 23.272727 6.981818 37.236364 16.290909h4.654545c25.6 16.290909 44.218182 41.890909 48.872727 69.818182 4.654545 20.945455 2.327273 37.236364-6.981818 51.2v4.654545c-6.981818 9.309091-16.290909 18.618182-30.254545 30.254546-2.327273 2.327273-6.981818 4.654545-9.309091 6.981818h-2.327273l-2.327273 2.327273-4.654545 4.654545c-4.654545 2.327273-6.981818 6.981818-11.636364 9.309091-25.6 20.945455-32.581818 55.854545-20.945454 86.109091 4.654545 16.290909 13.963636 37.236364 27.927272 60.509091 41.890909 72.145455 79.127273 114.036364 88.436364 121.018182 39.563636 44.218182 65.163636 69.818182 102.4 72.145454h6.981818c20.945455 0 39.563636-6.981818 79.127273-23.272727 6.981818-2.327273 11.636364-4.654545 16.290909-6.981818h9.309091c25.6 0 65.163636 18.618182 88.436364 48.872727 11.636364 16.290909 18.618182 37.236364 18.618181 58.181818v6.981818c-2.327273 4.654545-6.981818 13.963636-11.636363 20.945455-20.945455 30.254545-53.527273 46.545455-55.854546 48.872727-20.945455 9.309091-41.890909 13.963636-67.490909 13.963637-20.945455 0-39.563636-4.654545-51.2-4.654546-4.654545 0-55.854545-11.636364-107.054545-48.872727-4.654545-2.327273-9.309091-6.981818-11.636364-9.309091-72.145455-62.836364-132.654545-132.654545-218.763636-290.909091-46.545455-86.109091-51.2-128-55.854546-160.581818-6.981818-18.618182-16.290909-116.363636 34.909091-158.254546 20.945455-13.963636 55.854545-30.254545 90.763637-30.254545m0-69.818182c-53.527273 0-102.4 20.945455-132.654546 44.218182-83.781818 67.490909-69.818182 197.818182-65.163636 223.418182 4.654545 41.890909 13.963636 90.763636 62.836363 183.854545 83.781818 158.254545 148.945455 237.381818 232.727273 311.854546 6.981818 4.654545 11.636364 9.309091 18.618182 13.963636 58.181818 44.218182 118.690909 58.181818 134.981818 62.836364 13.963636 2.327273 37.236364 6.981818 65.163636 6.981818 30.254545 0 62.836364-4.654545 97.745455-23.272727 0 0 48.872727-23.272727 81.454545-72.145455 0 0 20.945455-32.581818 23.272728-53.527273v-13.963636c0-9.309091-2.327273-55.854545-32.581818-97.745455-34.909091-48.872727-93.090909-79.127273-144.29091-79.127272-11.636364 0-23.272727 2.327273-32.581818 4.654545-2.327273 2.327273-4.654545 2.327273-6.981818 2.327273-2.327273 2.327273-4.654545 2.327273-11.636364 6.981818-23.272727 9.309091-44.218182 18.618182-53.527272 18.618182h-2.327273c-9.309091 0-32.581818-25.6-58.181818-51.2 0 0-37.236364-37.236364-76.8-107.054546-13.963636-23.272727-20.945455-41.890909-23.272727-51.2-2.327273-2.327273 0-6.981818 2.327272-9.30909 4.654545-4.654545 13.963636-11.636364 18.618182-16.29091 16.290909-13.963636 39.563636-30.254545 53.527273-55.854545 20.945455-30.254545 25.6-65.163636 18.618182-104.727273-9.309091-48.872727-37.236364-88.436364-81.454546-116.363636-25.6-18.618182-60.509091-25.6-60.509091-25.6-9.309091 0-18.618182-2.327273-27.927272-2.327273zM546.909091 332.8c6.981818 4.654545 165.236364 67.490909 169.890909 237.381818 0 16.290909 13.963636 27.927273 27.927273 32.581818 2.327273 0 4.654545 0 9.309091 2.327273 18.618182 0 34.909091-16.290909 32.581818-34.909091-6.981818-216.436364-207.127273-297.890909-214.109091-302.545454-18.618182-6.981818-37.236364 2.327273-44.218182 18.618181-4.654545 16.290909 2.327273 37.236364 18.618182 46.545455z" fill="#A6A6A6" p-id="1883"></path><path d="M928.581818 619.054545s-2.327273 0 0 0c-20.945455 0-34.909091-16.290909-34.909091-37.236363 18.618182-388.654545-330.472727-439.854545-346.763636-442.181818-18.618182-2.327273-32.581818-20.945455-30.254546-39.563637 2.327273-18.618182 20.945455-32.581818 39.563637-30.254545 4.654545 0 428.218182 58.181818 407.272727 514.327273-2.327273 20.945455-16.290909 34.909091-34.909091 34.90909z" fill="#A6A6A6" p-id="1884"></path></svg>