<svg t="1628856751779" class="icon" viewBox="0 0 1024 1024" version="1.1" xmlns="http://www.w3.org/2000/svg" p-id="2359" width="64" height="64"><path d="M512.3 960.5c-247.5 0-448.1-200.6-448.1-448.1S264.8 64.2 512.3 64.2s448.1 200.6 448.1 448.1-200.6 448.2-448.1 448.2z m252.6-587.1c-8.8-8.7-22.9-8.7-31.7 0L463.8 642.8 321.2 500.2c-8.8-8.8-22.9-8.8-31.7 0-8.7 8.8-8.7 22.9 0 31.7L448 690.3c8.8 8.7 22.9 8.7 31.7 0l285.2-285.2c8.7-8.8 8.7-23 0-31.7z" fill="#F3D7B2" p-id="2360" data-spm-anchor-id="a313x.7781069.0.i6" class="selected"></path></svg>