<svg t="1623407362536" class="icon" viewBox="0 0 1024 1024" version="1.1" xmlns="http://www.w3.org/2000/svg" p-id="10526" width="128" height="128"><path d="M160.29 419.92c-7.33 7.33-18.99 7.33-25.88 0-6.91-6.89-6.91-18.55 0-25.88l202.69-202.5H220.66c-9.91 0-18.11-8.41-18.11-18.33 0-9.91 8.19-18.33 18.11-18.33h160.45c2.8 0 6.03 0.86 8.61 1.94v0.44l1.08 0.86 2.36 1.5 0.88 0.64 0.42 0.66h0.22c0.42 0.86 0.86 1.06 1.5 2.36l0.86 1.3c1.3 2.36 2.16 5.39 2.16 8.61V333.2c0 10.36-8.19 18.55-18.11 18.55-9.94 0-18.13-8.19-18.13-18.55v-116L160.29 419.92z m-13.16 449.19c-16.83 0-30.41-13.58-30.41-30.41s13.58-30.41 30.41-30.41h147.29V661.01c0-16.38 13.58-30.41 30.63-30.41H472.12V483.32c0-16.61 13.8-30.19 30.61-30.19H649.8V305.84c0-17.03 13.58-30.63 30.39-30.63h196.68c17.03 0 30.41 13.6 30.41 30.63 0 16.61-13.38 30.19-30.41 30.19H710.6v147.29c0 16.83-13.36 30.41-30.41 30.41H532.92v147.29c0 16.83-13.6 30.63-30.21 30.63H355.23V838.72c0 16.83-13.38 30.41-30.19 30.41H147.13v-0.02z" fill="#CDA174" p-id="10527" data-spm-anchor-id="a313x.7781069.0.i27" class="selected"></path></svg>